<svg width="116" height="116" viewBox="0 0 116 116" fill="none" xmlns="http://www.w3.org/2000/svg">
<g clip-path="url(#clip0_740_10)">
<path d="M0 8.3085C0 3.71925 3.8135 0 8.51875 0H107.481C112.186 0 116 3.71925 116 8.3085V107.692C116 112.281 112.186 116 107.481 116H8.51875C3.8135 116 0 112.281 0 107.692V8.3085ZM35.8367 97.1065V44.7253H18.4295V97.1065H35.8367ZM27.1368 37.5695C33.205 37.5695 36.9822 33.553 36.9822 28.5215C36.8735 23.3813 33.2123 19.4735 27.2528 19.4735C21.2933 19.4735 17.4 23.3885 17.4 28.5215C17.4 33.553 21.1773 37.5695 27.0207 37.5695H27.1368ZM62.7198 97.1065V67.8528C62.7198 66.2868 62.8357 64.7207 63.2997 63.6042C64.554 60.4795 67.4178 57.2387 72.2318 57.2387C78.532 57.2387 81.0477 62.0383 81.0477 69.0853V97.1065H98.455V67.0625C98.455 50.9675 89.871 43.4855 78.416 43.4855C69.1795 43.4855 65.0398 48.5605 62.7198 52.1347V52.316H62.6038L62.7198 52.1347V44.7253H45.3197C45.5372 49.6408 45.3197 97.1065 45.3197 97.1065H62.7198Z" fill="white"/>
</g>
<defs>
<clipPath id="clip0_740_10">
<rect width="116" height="116" fill="white"/>
</clipPath>
</defs>
</svg>
