<svg width="116" height="116" viewBox="0 0 116 116" fill="none" xmlns="http://www.w3.org/2000/svg">
<g clip-path="url(#clip0_740_8)">
<path d="M39.1953 80.9583C39.3967 80.6563 39.3212 80.329 38.9688 79.9766C38.5156 79.6241 38.1632 79.5738 37.9115 79.8255C37.7101 80.1276 37.7856 80.4549 38.138 80.8073C38.5911 81.1597 38.9436 81.2101 39.1953 80.9583ZM37.0807 77.862C36.829 77.5096 36.5269 77.4089 36.1745 77.5599C35.8724 77.7613 35.8724 78.0634 36.1745 78.4661C36.5269 78.8689 36.829 78.9948 37.0807 78.8438C37.3828 78.6424 37.3828 78.3151 37.0807 77.862ZM33.9844 74.8411C34.0851 74.6398 33.9592 74.4384 33.6068 74.237C33.2543 74.1363 33.053 74.1866 33.0026 74.388C32.8516 74.6398 32.9523 74.8411 33.3047 74.9922C33.7075 75.0929 33.934 75.0425 33.9844 74.8411ZM35.5703 76.5781C35.671 76.5278 35.7088 76.4145 35.6836 76.2383C35.6584 76.0621 35.5703 75.9236 35.4193 75.8229C35.1172 75.4705 34.8655 75.395 34.6641 75.5964C34.4627 75.7977 34.4878 76.0747 34.7396 76.4271C35.0417 76.7292 35.3186 76.7795 35.5703 76.5781ZM42.0651 82.2422C42.1658 81.8898 41.9392 81.6128 41.3854 81.4115C40.9323 81.2604 40.605 81.3611 40.4036 81.7135C40.303 82.066 40.5295 82.3429 41.0833 82.5443C41.5365 82.6953 41.8637 82.5946 42.0651 82.2422ZM45.237 82.4688C45.237 82.066 44.9349 81.8646 44.3307 81.8646C43.8273 81.8646 43.5755 82.066 43.5755 82.4688C43.5755 82.8715 43.8524 83.0729 44.4063 83.0729C44.9601 83.0729 45.237 82.8715 45.237 82.4688ZM48.1823 81.9401C48.0816 81.5877 47.7543 81.4618 47.2005 81.5625C46.6467 81.6632 46.4201 81.8898 46.5208 82.2422C46.6215 82.645 46.9236 82.796 47.4271 82.6953C47.9306 82.5946 48.1823 82.3429 48.1823 81.9401ZM96.6667 58C96.6667 47.3264 92.8906 38.2135 85.3385 30.6615C77.7865 23.1094 68.6736 19.3333 58 19.3333C47.3264 19.3333 38.2135 23.1094 30.6615 30.6615C23.1094 38.2135 19.3333 47.3264 19.3333 58C19.3333 66.408 21.8003 73.9727 26.7344 80.694C31.6684 87.4154 38.0122 92.0851 45.7656 94.7031C46.6719 94.8542 47.339 94.7283 47.7669 94.3255C48.1949 93.9227 48.4089 93.4193 48.4089 92.8151C48.4089 90.1971 48.3837 87.8056 48.3333 85.6406C48.0313 85.691 47.6411 85.7539 47.1628 85.8294C46.6845 85.905 45.7908 85.9553 44.4818 85.9805C43.1727 86.0056 41.9644 85.905 40.8568 85.6784C39.7491 85.4518 38.6541 84.9484 37.5716 84.168C36.4892 83.3876 35.7465 82.3429 35.3438 81.0339C34.1858 78.0634 32.7509 76.2005 31.0391 75.4453C30.9384 75.395 30.8251 75.3069 30.6992 75.181L30.0951 74.5768L29.5664 73.8594L29.8685 73.293L31.3411 73.0286C31.6432 73.0286 32.0208 73.079 32.474 73.1797C32.9271 73.2804 33.6823 73.6706 34.7396 74.3503C35.7969 75.03 36.6276 75.9236 37.2318 77.0313C38.0373 78.441 38.9813 79.4983 40.0638 80.2031C41.1463 80.908 42.2413 81.2604 43.349 81.2604C44.4566 81.2604 45.4132 81.1723 46.2188 80.9961C47.0243 80.8199 47.7795 80.5807 48.4844 80.2786C48.8368 77.9123 49.6675 76.1753 50.9766 75.0677C48.5096 74.7656 46.3446 74.2999 44.4818 73.6706C42.6189 73.0412 40.7813 72.0595 38.9688 70.7253C37.1563 69.3911 35.7591 67.4779 34.7773 64.9857C33.7956 62.4935 33.3047 59.4852 33.3047 55.9609C33.3047 51.9835 34.6389 48.5347 37.3073 45.6146C36.099 42.4931 36.2248 39.0694 37.6849 35.3438C38.6415 35.0417 40.0135 35.2305 41.8008 35.9102C43.5881 36.5898 45.1111 37.3325 46.3698 38.138L48.3333 39.3464C51.2535 38.4905 54.4757 38.0625 58 38.0625C61.5243 38.0625 64.7465 38.4905 67.6667 39.3464C68.2205 38.9939 68.9379 38.5408 69.819 37.987C70.7001 37.4332 72.0972 36.7786 74.0104 36.0234C75.9236 35.2682 77.3585 35.0417 78.3151 35.3438C79.7752 39.0694 79.901 42.4931 78.6927 45.6146C81.3611 48.5347 82.6953 51.9835 82.6953 55.9609C82.6953 58.8307 82.3429 61.3607 81.638 63.5508C80.9332 65.7409 80.0395 67.503 78.957 68.8372C77.8746 70.1714 76.5278 71.2917 74.9167 72.1979C73.3056 73.1042 71.7322 73.7587 70.1966 74.1615C68.661 74.5642 66.9366 74.8663 65.0234 75.0677C66.7856 76.6285 67.6667 79.02 67.6667 82.2422C67.6667 84.2561 67.6541 86.4965 67.6289 88.9635C67.6037 91.4306 67.5911 92.7144 67.5911 92.8151C67.5911 93.4193 67.8051 93.9227 68.2331 94.3255C68.661 94.7283 69.3281 94.8542 70.2344 94.7031C77.9878 92.0851 84.3316 87.4154 89.2656 80.694C94.1997 73.9727 96.6667 66.408 96.6667 58ZM116 21.75V94.25C116 100.241 113.873 105.364 109.618 109.618C105.364 113.873 100.241 116 94.25 116H21.75C15.7587 116 10.6359 113.873 6.38151 109.618C2.12717 105.364 0 100.241 0 94.25V21.75C0 15.7587 2.12717 10.6359 6.38151 6.38151C10.6359 2.12717 15.7587 0 21.75 0H94.25C100.241 0 105.364 2.12717 109.618 6.38151C113.873 10.6359 116 15.7587 116 21.75Z" fill="white"/>
</g>
<defs>
<clipPath id="clip0_740_8">
<rect width="116" height="116" fill="white"/>
</clipPath>
</defs>
</svg>
